HIERARCHY
ROOT Hips
{
	OFFSET 0.000000 83.214638 0.000000
	CHANNELS 6 Xposition Yposition Zposition Xrotation Yrotation Zrotation
	JOINT Pelvis
	{
		OFFSET 0.000000 0.000000 0.000000
		CHANNELS 3 Xrotation Yrotation Zrotation
		JOINT LeftUpLeg
		{
			OFFSET 8.479700 -4.795502 -0.379100
			CHANNELS 3 Xrotation Yrotation Zrotation
			JOINT LeftLeg
			{
				OFFSET 0.024144 -32.555107 0.112900
				CHANNELS 3 Xrotation Yrotation Zrotation
				JOINT LeftFoot
				{
					OFFSET -0.024144 -32.638630 -3.012600
					CHANNELS 3 Xrotation Yrotation Zrotation
					JOINT LeftToeBase
					{
						OFFSET 0.970200 -13.225400 11.864200
						CHANNELS 3 Xrotation Yrotation Zrotation
						End Site
						{
							OFFSET 0.000000 12.319262 0.000000
						}
					}
					JOINT LFootTongue
					{
						OFFSET 1.142400 -1.059800 6.665200
						CHANNELS 3 Xrotation Yrotation Zrotation
						End Site
						{
							OFFSET 0.000000 12.319262 0.000000
						}
					}
				}
				JOINT LeftPantLeg
				{
					OFFSET 0.918482 -16.533964 -2.284700
					CHANNELS 3 Xrotation Yrotation Zrotation
					End Site
					{
						OFFSET 0.350399 24.744368 0.000000
					}
				}
			}
		}
		JOINT RightUpLeg
		{
			OFFSET -8.479700 -4.795502 -0.379100
			CHANNELS 3 Xrotation Yrotation Zrotation
			JOINT RightLeg
			{
				OFFSET -0.023144 -32.555092 0.112900
				CHANNELS 3 Xrotation Yrotation Zrotation
				JOINT RightFoot
				{
					OFFSET 0.023144 -32.638641 -3.012700
					CHANNELS 3 Xrotation Yrotation Zrotation
					JOINT RightToeBase
					{
						OFFSET -0.970200 -13.225400 11.864200
						CHANNELS 3 Xrotation Yrotation Zrotation
						End Site
						{
							OFFSET 0.000000 12.319244 0.000000
						}
					}
					JOINT RFootTongue
					{
						OFFSET -1.142200 -1.059800 6.665200
						CHANNELS 3 Xrotation Yrotation Zrotation
						End Site
						{
							OFFSET 0.000000 12.319243 0.000000
						}
					}
				}
				JOINT RightPantLeg
				{
					OFFSET -0.919482 -16.533978 -2.284800
					CHANNELS 3 Xrotation Yrotation Zrotation
					End Site
					{
						OFFSET -0.350400 24.744419 0.000000
					}
				}
			}
		}
	}
	JOINT Spine
	{
		OFFSET 0.000000 7.722000 1.166200
		CHANNELS 3 Xrotation Yrotation Zrotation
		JOINT Spine1
		{
			OFFSET 0.000000 12.024101 0.248800
			CHANNELS 3 Xrotation Yrotation Zrotation
			JOINT Spine2
			{
				OFFSET 0.000000 11.502998 -0.491200
				CHANNELS 3 Xrotation Yrotation Zrotation
				JOINT Neck
				{
					OFFSET 0.000000 18.430702 -3.123100
					CHANNELS 3 Xrotation Yrotation Zrotation
					JOINT Head
					{
						OFFSET 0.000000 9.051102 1.034000
						CHANNELS 3 Xrotation Yrotation Zrotation
						JOINT HairB
						{
							OFFSET 0.208400 24.786102 24.822300
							CHANNELS 3 Xrotation Yrotation Zrotation
							End Site
							{
								OFFSET 0.000000 32.263779 0.000000
							}
						}
						JOINT HairA
						{
							OFFSET -7.081100 24.428299 23.196600
							CHANNELS 3 Xrotation Yrotation Zrotation
							End Site
							{
								OFFSET 0.000000 32.263779 0.000000
							}
						}
						JOINT Hat
						{
							OFFSET 16.728800 15.048294 -15.439601
							CHANNELS 3 Xrotation Yrotation Zrotation
							End Site
							{
								OFFSET 0.000000 32.263779 0.000000
							}
						}
					}
				}
				JOINT LeftShoulder
				{
					OFFSET 6.197800 13.665199 -4.064700
					CHANNELS 3 Xrotation Yrotation Zrotation
					JOINT LeftArm
					{
						OFFSET 7.778100 -0.187103 -1.709300
						CHANNELS 3 Xrotation Yrotation Zrotation
						JOINT LeftForeArm
						{
							OFFSET 22.049376 0.000000 0.000000
							CHANNELS 3 Xrotation Yrotation Zrotation
							JOINT LeftHand
							{
								OFFSET 23.009392 0.000000 0.000000
								CHANNELS 3 Xrotation Yrotation Zrotation
								JOINT LeftHandThumb1
								{
									OFFSET 3.507191 -2.063065 3.133727
									CHANNELS 3 Xrotation Yrotation Zrotation
									JOINT LeftHandThumb2
									{
										OFFSET 3.101337 -1.790558 1.790558
										CHANNELS 3 Xrotation Yrotation Zrotation
										JOINT LeftHandThumb3
										{
											OFFSET 3.058640 -1.765907 1.765906
											CHANNELS 3 Xrotation Yrotation Zrotation
											End Site
											{
												OFFSET -0.415260 3.926476 -0.049563
											}
										}
									}
								}
								JOINT LeftHandIndex1
								{
									OFFSET 11.334419 -0.901459 3.706815
									CHANNELS 3 Xrotation Yrotation Zrotation
									JOINT LeftHandIndex2
									{
										OFFSET 3.283112 0.000000 0.000000
										CHANNELS 3 Xrotation Yrotation Zrotation
										JOINT LeftHandIndex3
										{
											OFFSET 3.323853 0.000000 0.000000
											CHANNELS 3 Xrotation Yrotation Zrotation
											End Site
											{
												OFFSET -1.135597 3.097809 0.402452
											}
										}
									}
								}
								JOINT LeftHandMiddle1
								{
									OFFSET 11.335861 0.000000 0.000000
									CHANNELS 3 Xrotation Yrotation Zrotation
									JOINT LeftHandMiddle2
									{
										OFFSET 3.410492 0.000000 0.000000
										CHANNELS 3 Xrotation Yrotation Zrotation
										JOINT LeftHandMiddle3
										{
											OFFSET 3.312172 0.000000 0.000000
											CHANNELS 3 Xrotation Yrotation Zrotation
											End Site
											{
												OFFSET -1.150200 3.080154 0.400270
											}
										}
									}
								}
								JOINT LeftHandRing1
								{
									OFFSET 11.514786 -0.013176 -3.003090
									CHANNELS 3 Xrotation Yrotation Zrotation
									JOINT LeftHandRing2
									{
										OFFSET 3.053307 0.000000 0.000000
										CHANNELS 3 Xrotation Yrotation Zrotation
										JOINT LeftHandRing3
										{
											OFFSET 3.295807 0.000000 0.000000
											CHANNELS 3 Xrotation Yrotation Zrotation
											End Site
											{
												OFFSET -1.281006 3.013344 0.375733
											}
										}
									}
								}
								JOINT LeftHandPinky1
								{
									OFFSET 10.518692 -0.960396 -5.730441
									CHANNELS 3 Xrotation Yrotation Zrotation
									JOINT LeftHandPinky2
									{
										OFFSET 2.861649 0.000000 0.000000
										CHANNELS 3 Xrotation Yrotation Zrotation
										JOINT LeftHandPinky3
										{
											OFFSET 2.863380 0.000000 0.000000
											CHANNELS 3 Xrotation Yrotation Zrotation
											End Site
											{
												OFFSET -0.843597 2.711159 0.369971
											}
										}
									}
								}
							}
							JOINT LSleeve
							{
								OFFSET 6.676277 -0.344902 -1.011730
								CHANNELS 3 Xrotation Yrotation Zrotation
								End Site
								{
									OFFSET 0.000000 14.885353 0.000000
								}
							}
						}
					}
				}
				JOINT RightShoulder
				{
					OFFSET -6.197800 13.665199 -4.064700
					CHANNELS 3 Xrotation Yrotation Zrotation
					JOINT RightArm
					{
						OFFSET -7.778100 -0.187103 -1.709300
						CHANNELS 3 Xrotation Yrotation Zrotation
						JOINT RightForeArm
						{
							OFFSET -22.049376 0.000000 0.000000
							CHANNELS 3 Xrotation Yrotation Zrotation
							JOINT RightHand
							{
								OFFSET -23.009392 0.000000 0.000000
								CHANNELS 3 Xrotation Yrotation Zrotation
								JOINT RightHandThumb1
								{
									OFFSET -3.507191 -2.063065 3.133727
									CHANNELS 3 Xrotation Yrotation Zrotation
									JOINT RightHandThumb2
									{
										OFFSET -3.101337 -1.790558 1.790558
										CHANNELS 3 Xrotation Yrotation Zrotation
										JOINT RightHandThumb3
										{
											OFFSET -3.058640 -1.765907 1.765906
											CHANNELS 3 Xrotation Yrotation Zrotation
											End Site
											{
												OFFSET 0.415260 3.926476 -0.049563
											}
										}
									}
								}
								JOINT RightHandIndex1
								{
									OFFSET -11.334419 -0.901459 3.706815
									CHANNELS 3 Xrotation Yrotation Zrotation
									JOINT RightHandIndex2
									{
										OFFSET -3.283112 0.000000 0.000000
										CHANNELS 3 Xrotation Yrotation Zrotation
										JOINT RightHandIndex3
										{
											OFFSET -3.323853 0.000000 0.000000
											CHANNELS 3 Xrotation Yrotation Zrotation
											End Site
											{
												OFFSET 1.135597 3.097809 0.402452
											}
										}
									}
								}
								JOINT RightHandMiddle1
								{
									OFFSET -11.335861 0.000000 0.000000
									CHANNELS 3 Xrotation Yrotation Zrotation
									JOINT RightHandMiddle2
									{
										OFFSET -3.410492 0.000000 0.000000
										CHANNELS 3 Xrotation Yrotation Zrotation
										JOINT RightHandMiddle3
										{
											OFFSET -3.312172 0.000000 0.000000
											CHANNELS 3 Xrotation Yrotation Zrotation
											End Site
											{
												OFFSET 1.150200 3.080154 0.400270
											}
										}
									}
								}
								JOINT RightHandRing1
								{
									OFFSET -11.514786 -0.013176 -3.003090
									CHANNELS 3 Xrotation Yrotation Zrotation
									JOINT RightHandRing2
									{
										OFFSET -3.053307 0.000000 0.000000
										CHANNELS 3 Xrotation Yrotation Zrotation
										JOINT RightHandRing3
										{
											OFFSET -3.295807 0.000000 0.000000
											CHANNELS 3 Xrotation Yrotation Zrotation
											End Site
											{
												OFFSET 1.281006 3.013344 0.375733
											}
										}
									}
								}
								JOINT RightHandPinky1
								{
									OFFSET -10.518692 -0.960396 -5.730441
									CHANNELS 3 Xrotation Yrotation Zrotation
									JOINT RightHandPinky2
									{
										OFFSET -2.861649 0.000000 0.000000
										CHANNELS 3 Xrotation Yrotation Zrotation
										JOINT RightHandPinky3
										{
											OFFSET -2.863380 0.000000 0.000000
											CHANNELS 3 Xrotation Yrotation Zrotation
											End Site
											{
												OFFSET 0.843597 2.711159 0.369971
											}
										}
									}
								}
							}
							JOINT RSleeve
							{
								OFFSET -6.676277 -0.344902 -1.011730
								CHANNELS 3 Xrotation Yrotation Zrotation
								End Site
								{
									OFFSET 0.000000 14.885353 0.000000
								}
							}
						}
					}
				}
				JOINT Backpack
				{
					OFFSET 0.000000 -2.471497 36.677502
					CHANNELS 3 Xrotation Yrotation Zrotation
					End Site
					{
						OFFSET 0.000000 20.427315 0.000000
					}
				}
				JOINT Hood
				{
					OFFSET 0.000000 18.754097 -10.431000
					CHANNELS 3 Xrotation Yrotation Zrotation
					JOINT Hood1
					{
						OFFSET 0.000000 -5.011002 -7.685901
						CHANNELS 3 Xrotation Yrotation Zrotation
						End Site
						{
							OFFSET 0.000000 9.175140 0.000000
						}
					}
				}
				JOINT LHoodieString
				{
					OFFSET 5.250500 16.397697 3.089900
					CHANNELS 3 Xrotation Yrotation Zrotation
					JOINT LHoodieString1
					{
						OFFSET 0.257700 -6.364304 3.694600
						CHANNELS 3 Xrotation Yrotation Zrotation
						JOINT LHoodieString2
						{
							OFFSET 0.000000 -9.643799 2.679100
							CHANNELS 3 Xrotation Yrotation Zrotation
							End Site
							{
								OFFSET 0.000000 10.009018 0.000000
							}
						}
					}
				}
				JOINT RHoodieString
				{
					OFFSET -5.250500 16.397697 3.089900
					CHANNELS 3 Xrotation Yrotation Zrotation
					JOINT RHoodieString1
					{
						OFFSET -0.257700 -6.364304 3.694600
						CHANNELS 3 Xrotation Yrotation Zrotation
						JOINT RHoodieString2
						{
							OFFSET 0.000000 -9.643799 2.679100
							CHANNELS 3 Xrotation Yrotation Zrotation
							End Site
							{
								OFFSET 0.000000 10.009018 0.000000
							}
						}
					}
				}
			}
			JOINT LBackpack_Strap
			{
				OFFSET 15.223200 -7.719803 -6.610900
				CHANNELS 3 Xrotation Yrotation Zrotation
				End Site
				{
					OFFSET 0.000000 16.040596 0.000000
				}
			}
			JOINT RBackpack_Strap
			{
				OFFSET -15.223000 -7.719803 -6.610900
				CHANNELS 3 Xrotation Yrotation Zrotation
				End Site
				{
					OFFSET 0.000000 16.040596 0.000000
				}
			}
		}
	}
	JOINT BoyFacialAnim_Joint
	{
		OFFSET 1.000000 -82.208099 -1.550900
		CHANNELS 3 Xrotation Yrotation Zrotation
		End Site
		{
			OFFSET 0.000000 30.012791 0.000000
		}
	}
}
MOTION
Frames: 4
Frame Time: 0.033333
-69.699409 70.919113 12.301814 7.379147 -167.841613 -2.386354 0.000001 -0.000001 0.000000 -19.308576 2.775595 28.006159 52.822231 -7.999900 10.179989 -32.633544 -7.747176 -15.268734 0.000000 0.000000 -0.000001 0.000000 0.000000 -0.000000 0.000001 -0.000001 -0.000002 -0.924564 -22.870912 -29.670369 24.379249 6.338579 -6.720288 -14.928601 -2.994461 26.714355 -0.000000 -0.000000 0.000000 -0.000000 -0.000000 0.000000 0.000001 0.000000 -0.000002 0.333156 3.824027 -0.318965 0.074877 7.569035 0.011630 0.030381 7.569314 -0.063200 10.754979 0.187524 0.958297 12.362795 2.757236 -2.305395 0.000001 -0.000001 0.000002 0.000001 -0.000001 0.000002 0.000001 -0.000001 0.000002 0.986265 -2.870645 6.218967 6.275803 29.784396 -14.017523 -0.000161 -87.285378 -0.000144 -16.660978 9.059202 15.794876 7.775625 -5.417901 0.589044 7.346940 30.312683 -9.502344 0.000001 -0.000001 0.000001 -1.289985 2.342618 -52.475531 6.013041 6.826486 -82.734710 0.000001 0.000000 -0.000002 1.910248 4.868984 -52.985636 5.355482 6.710713 -77.159882 0.000002 -0.000001 0.000002 2.691790 5.501835 -55.587672 5.008575 6.622665 -74.172446 0.000000 0.000001 -0.000002 7.185353 8.312235 -58.595353 4.379207 2.324915 -68.695468 -0.000000 0.000000 0.000002 -0.000000 0.000001 -0.000000 1.136890 -1.331887 8.640171 -33.071598 -62.079890 20.956965 -0.000143 107.678458 0.000150 -65.813545 -6.022930 1.116877 28.178779 38.369547 -16.680078 7.904805 -8.957006 13.731198 0.000000 0.000000 -0.000001 0.053496 0.952804 -4.488956 6.234602 -6.911668 84.090427 -0.000002 -0.000001 0.000003 -0.145094 -1.336960 -5.162360 5.555771 -6.807934 78.411794 0.000000 0.000001 -0.000000 -0.118419 -4.322301 -1.811819 6.009148 -6.884802 82.213648 -0.000000 -0.000001 0.000002 0.369266 -3.552027 6.534274 6.095688 -6.895998 82.934937 -0.000000 -0.000001 -0.000002 0.000002 0.000003 -0.000003 0.000000 -0.000002 -0.000001 0.000000 -0.000002 -0.000001 0.000000 -0.000002 -0.000001 0.000000 -0.000002 -0.000001 0.000000 -0.000002 -0.000000 0.000001 -0.000002 -0.000000 0.000000 -0.000002 -0.000001 0.000000 -0.000002 -0.000000 0.000001 -0.000002 -0.000000 -0.000000 0.000002 -0.000000 -0.000000 0.000002 -0.000000 0.000001 -0.000001 0.000000 
-69.798615 70.852463 11.914968 7.250660 -166.385266 -3.274254 -0.000000 -0.000000 0.000001 -20.053948 1.842839 28.943876 53.593568 -8.010930 10.180592 -33.138432 -8.502310 -15.172283 0.000000 0.000001 0.000000 0.000000 0.000001 0.000000 0.000002 0.000000 -0.000001 1.122908 -23.415369 -28.115992 23.427851 5.898878 -6.085581 -14.609015 -3.981952 26.194800 -0.000000 0.000001 0.000000 -0.000000 0.000001 0.000000 -0.000001 0.000000 0.000001 0.229781 4.119366 -0.178817 -0.149315 8.154028 0.329337 -0.199281 8.156156 0.248363 11.480852 -0.859457 1.300749 15.195180 -3.550084 1.953227 -0.000002 0.000001 -0.000000 -0.000002 0.000001 -0.000000 -0.000002 0.000001 -0.000000 0.454367 -0.707504 7.307869 3.306294 38.488358 -16.902519 0.002026 -89.468689 0.002302 -13.981193 2.279568 9.594520 9.309223 -13.098693 -0.402657 6.253101 26.597441 -6.031448 -0.000001 0.000001 -0.000001 -3.608984 -3.606504 -33.473231 3.594745 6.048996 -61.413427 -0.000001 -0.000002 -0.000004 0.224500 2.386155 -33.162761 3.162111 5.793651 -57.221546 0.000002 -0.000003 -0.000002 2.209995 5.331242 -35.590224 2.904008 5.619938 -54.626466 -0.000001 0.000000 -0.000005 8.094210 12.798881 -37.732226 2.539616 1.255427 -50.939947 -0.000001 -0.000001 -0.000000 0.000001 0.000001 -0.000000 0.855631 -2.398136 7.936514 -29.881798 -67.024838 25.005908 0.000004 105.917028 -0.000006 -66.315878 -5.245405 6.202913 28.178780 38.369540 -16.680092 7.904808 -8.956988 13.731237 0.000002 0.000003 -0.000002 0.053500 0.952811 -4.488940 6.234586 -6.911666 84.090407 -0.000001 -0.000003 0.000007 -0.145103 -1.336961 -5.162371 5.555771 -6.807935 78.411781 -0.000000 0.000001 0.000002 -0.118420 -4.322311 -1.811815 6.009141 -6.884787 82.213635 -0.000003 0.000000 0.000000 0.369245 -3.552021 6.534269 6.095704 -6.896002 82.934916 -0.000000 0.000000 0.000000 0.000004 0.000001 -0.000002 -0.000000 -0.000000 -0.000001 -0.000000 -0.000000 -0.000001 -0.000000 -0.000000 -0.000001 -0.000000 -0.000000 -0.000001 -0.000000 -0.000000 -0.000000 -0.000000 0.000001 -0.000000 -0.000000 -0.000000 -0.000001 -0.000000 -0.000000 -0.000000 -0.000000 0.000001 -0.000000 -0.000000 -0.000001 0.000000 -0.000000 -0.000001 0.000000 -0.000000 -0.000000 0.000001 
-69.789116 70.683113 11.970357 7.458030 -165.525386 -3.536014 0.000000 -0.000000 -0.000000 -20.528052 1.020256 29.243574 54.381993 -8.044389 10.173028 -33.314777 -8.804726 -15.301128 0.000000 -0.000000 0.000000 0.000000 -0.000000 0.000000 -0.000001 0.000002 0.000003 2.010369 -23.622961 -27.458245 23.637871 5.479996 -5.885398 -15.237503 -4.742973 25.689663 -0.000000 0.000001 0.000000 -0.000000 0.000001 0.000000 -0.000004 0.000001 0.000000 0.338079 4.100720 0.046203 0.051214 8.115619 0.693094 0.011933 8.123458 0.611495 11.548749 -1.366195 1.494949 16.304748 -6.650800 4.544836 0.000002 0.000000 -0.000000 0.000002 0.000000 -0.000000 0.000002 0.000000 -0.000000 0.037208 1.097494 7.765039 -0.235255 46.290173 -20.957252 0.000243 -97.178381 0.000248 -13.202091 -0.201768 5.542049 10.464823 -19.813382 -1.562334 5.649758 23.265805 -3.107137 0.000000 0.000001 0.000001 -2.972346 -9.674905 -16.570128 1.812530 4.660065 -42.488896 -0.000003 0.000000 -0.000000 -0.326615 -0.262534 -15.532111 1.584097 4.398489 -39.596884 0.000003 0.000003 0.000001 1.344009 5.291032 -17.697915 1.423054 4.196783 -37.448189 -0.000001 -0.000001 0.000001 5.774914 17.709980 -18.656457 1.258132 -0.111868 -35.350235 0.000002 0.000003 0.000002 -0.000001 -0.000000 0.000000 0.975927 -1.245266 7.598861 -30.940784 -68.781098 25.261335 -0.000184 104.590045 0.000186 -67.307498 -3.798575 9.084292 28.178794 38.369547 -16.680099 7.904802 -8.956998 13.731224 -0.000001 0.000002 0.000000 0.053510 0.952803 -4.488940 6.234582 -6.911663 84.090393 -0.000000 0.000004 0.000004 -0.145092 -1.336946 -5.162376 5.555777 -6.807961 78.411781 -0.000001 0.000000 -0.000002 -0.118419 -4.322303 -1.811813 6.009153 -6.884798 82.213635 0.000001 -0.000002 0.000007 0.369262 -3.552014 6.534264 6.095691 -6.896027 82.934937 -0.000001 0.000001 -0.000001 -0.000000 -0.000001 -0.000000 0.000000 0.000001 -0.000001 0.000000 0.000001 -0.000001 0.000000 0.000001 -0.000001 0.000000 0.000001 -0.000001 0.000000 0.000001 -0.000000 0.000001 -0.000003 -0.000000 0.000000 0.000001 -0.000001 0.000000 0.000001 -0.000000 0.000001 -0.000003 -0.000000 0.000000 0.000001 -0.000000 0.000000 0.000001 -0.000000 0.000000 -0.000000 -0.000000 
-69.627480 70.480217 12.327180 7.774647 -164.899577 -2.970000 0.000001 0.000000 -0.000000 -20.844119 0.475063 28.819567 54.604262 -8.311446 10.142612 -32.925818 -8.926208 -16.108672 -0.000000 -0.000000 -0.000000 -0.000000 -0.000000 0.000000 -0.000003 0.000002 0.000000 1.816518 -23.709146 -27.796317 24.777920 4.716447 -6.117098 -16.764465 -5.016685 25.250405 -0.000000 -0.000000 0.000001 -0.000000 -0.000000 0.000001 -0.000001 0.000001 0.000001 0.519798 3.953329 0.146244 0.419651 7.832597 0.801532 0.388017 7.843656 0.723092 11.117379 -1.426604 1.349034 16.583387 -7.116540 4.899104 -0.000000 0.000001 0.000000 -0.000000 0.000001 0.000000 -0.000000 0.000001 0.000000 -0.041987 1.585954 7.346509 -4.996541 49.475479 -24.560797 -0.000043 -106.888922 -0.000061 -11.756306 1.647557 4.537407 10.842194 -24.327573 -3.008332 5.313952 20.823589 -0.951939 0.000000 -0.000001 -0.000001 -0.754161 -13.745140 -4.025389 0.860776 3.338643 -28.907444 -0.000000 0.000006 -0.000003 -0.103211 -2.219682 -2.667446 0.761637 3.152689 -27.156170 0.000004 0.000001 -0.000001 0.409663 5.120068 -4.657702 0.679132 2.986659 -25.615902 -0.000000 0.000001 0.000001 1.883747 20.760464 -4.185123 0.616408 -1.221792 -24.718415 -0.000001 0.000000 -0.000000 0.000001 -0.000003 0.000000 1.234252 0.725719 7.291031 -33.647339 -68.448194 24.334439 -0.000264 103.076249 0.000257 -67.657054 -1.783020 11.002113 28.178784 38.369544 -16.680082 7.904802 -8.956989 13.731228 0.000000 -0.000000 -0.000001 0.053496 0.952804 -4.488945 6.234592 -6.911669 84.090414 0.000001 -0.000001 0.000002 -0.145090 -1.336958 -5.162364 5.555772 -6.807910 78.411801 -0.000000 0.000003 -0.000003 -0.118406 -4.322295 -1.811819 6.009127 -6.884795 82.213635 -0.000001 -0.000001 -0.000002 0.369236 -3.552027 6.534264 6.095700 -6.895998 82.934930 -0.000002 -0.000001 0.000003 -0.000004 0.000000 -0.000004 0.000000 -0.000002 -0.000000 0.000000 -0.000002 -0.000000 0.000000 -0.000002 -0.000000 0.000000 -0.000002 -0.000000 0.000000 -0.000002 0.000000 -0.000000 0.000001 0.000000 0.000000 -0.000002 -0.000000 0.000000 -0.000002 0.000000 -0.000000 0.000001 0.000000 0.000000 0.000001 0.000000 0.000000 0.000001 0.000000 0.000001 0.000000 -0.000000 
